<?xml version="1.0" encoding="UTF-8"?>
<svg width="86px" height="24px" viewBox="0 0 86 24" version="1.1" xmlns="http://www.w3.org/2000/svg" xmlns:xlink="http://www.w3.org/1999/xlink">
    <!-- Generator: Sketch 63.1 (92452) - https://sketch.com -->
    <title>Logo</title>
    <desc>Created with Sketch.</desc>
    <g id="NAVIGATION-STRUCTURE---DEV-0" stroke="none" stroke-width="1" fill="none" fill-rule="evenodd">
        <g id="NOL-/-Landing" transform="translate(-24.000000, -22.000000)" fill="#FE5000">
            <g id="Logo" transform="translate(24.000000, 22.000000)">
                <path d="M20.0133767,9.97021472 C19.5647544,10.5444707 19.3411691,11.2917874 19.3411691,12.2013245 C19.3411691,13.2610798 19.6388957,14.1078968 20.2507062,14.7189331 C20.8357059,15.3038359 21.5463391,15.6025303 22.3930594,15.6025303 C23.3907722,15.6025303 24.1756436,15.216628 24.7606432,14.4448234 C25.19707,13.858275 25.4213328,13.1109583 25.4213328,12.1890321 C25.4213328,11.1554101 25.122832,10.3194336 24.5239913,9.69755687 C23.9627052,9.11110535 23.2415218,8.8247033 22.343406,8.8247033 C21.3839253,8.8247033 20.6114431,9.21060562 20.0133767,9.97021472 L20.0133767,9.97021472 Z M22.343406,6.18310652 C23.4030646,6.18310652 24.4237167,6.54452094 25.3831007,7.27954534 L25.3831007,6.5567165 L28.2873859,6.5567165 L28.2873859,17.8705171 L25.3831007,17.8705171 L25.3831007,17.1476883 C24.4237167,17.8842613 23.4030646,18.245579 22.343406,18.245579 C20.5868584,18.245579 19.1168096,17.5856637 17.9322917,16.264091 C16.9107685,15.1293233 16.4001037,13.7710671 16.4001037,12.2013245 C16.4001037,10.3821536 17.0601157,8.88597146 18.3809141,7.70367978 C19.5156818,6.69309382 20.8357059,6.18310652 22.343406,6.18310652 Z M2.60326787,0.861622794 L11.4638254,12.6867658 L11.4638254,0.861622794 L14.4790321,0.861622794 L14.4790321,17.8704591 L11.8757642,17.8704591 L3.01530354,6.04531607 L3.01530354,17.8704591 L-7.99360578e-13,17.8704591 L-7.99360578e-13,0.861622794 L2.60326787,0.861622794 Z M36.1134213,6.48166542 C36.4005976,6.48166542 36.7618185,6.50625012 37.1860497,6.55667779 L37.1860497,9.16004245 C36.7375241,9.12335898 36.3882085,9.11106663 36.1394578,9.11106663 C35.2903178,9.11106663 34.7053181,9.34849287 34.3821358,9.82160312 C34.055953,10.3071025 33.8952814,11.1676637 33.8952814,12.4249678 L33.8952814,17.8704784 L30.992448,17.8704784 L30.992448,6.55667779 L33.8952814,6.55667779 L33.8952814,7.29179898 C34.5437754,6.75587191 35.2795741,6.48166542 36.1134213,6.48166542 Z M41.720465,9.97021472 C41.2718426,10.5444707 41.0489349,11.2917874 41.0489349,12.2013245 C41.0489349,13.2610798 41.3484036,14.1078968 41.9571169,14.7189331 C42.5443427,15.3038359 43.252653,15.6025303 44.1024705,15.6025303 C45.0986348,15.6025303 45.8835061,15.216628 46.4692801,14.4448234 C46.9056101,13.858275 47.1292921,13.1109583 47.1292921,12.1890321 C47.1292921,11.1554101 46.8298234,10.3194336 46.2318538,9.69755687 C45.6722132,9.11110535 44.9493844,8.8247033 44.0511718,8.8247033 C43.0911103,8.8247033 42.3192088,9.21060562 41.720465,9.97021472 L41.720465,9.97021472 Z M44.0511718,6.18310652 C45.1109271,6.18310652 46.1323536,6.54452094 47.0925119,7.27954534 L47.0925119,6.5567165 L49.995926,6.5567165 L49.995926,17.8705171 L47.0925119,17.8705171 L47.0925119,17.1476883 C46.1323536,17.8842613 45.1109271,18.245579 44.0511718,18.245579 C42.2947209,18.245579 40.8246721,17.5856637 39.6409286,16.264091 C38.6179535,15.1293233 38.1079662,13.7710671 38.1079662,12.2013245 C38.1079662,10.3821536 38.7679782,8.88597146 40.0888734,7.70367978 C41.2228668,6.69309382 42.5443427,6.18310652 44.0511718,6.18310652 Z M58.2331452,6.18312588 C59.5654616,6.18312588 60.8869376,6.74363764 61.7460469,7.69005173 C62.6319672,8.62562532 62.9926073,9.84614911 62.9926073,11.7894049 L62.9926073,17.8704397 L60.0891932,17.8704397 L60.0891932,11.9763067 C60.0891932,10.7068071 59.9023882,9.85844146 59.5286814,9.43575887 C59.1680413,9.02381999 58.6573765,8.82472265 58.0203037,8.82472265 C57.1856822,8.82472265 56.5510292,9.0866368 56.1267012,9.60872287 C55.7783535,10.0451497 55.6038408,10.9058077 55.6038408,12.2136362 L55.6038408,17.8704397 L52.6996524,17.8704397 L52.6996524,6.55673586 L55.6038408,6.55673586 L55.6038408,7.15557652 C56.4139744,6.50630819 57.2860536,6.18312588 58.2331452,6.18312588 Z M74.4579039,9.97021472 C74.0092815,10.5444707 73.7841476,11.2917874 73.7841476,12.2013245 C73.7841476,13.2610798 74.0835196,14.1078968 74.6945558,14.7189331 C75.2803298,15.3038359 75.9908662,15.6025303 76.8376833,15.6025303 C77.8346218,15.6025303 78.6193964,15.216628 79.2051703,14.4448234 C79.6416939,13.858275 79.8668278,13.1109583 79.8668278,12.1890321 C79.8668278,11.1554101 79.5681334,10.3194336 78.9692927,9.69755687 C78.4081035,9.11110535 77.6852746,8.8247033 76.7886107,8.8247033 C75.8285492,8.8247033 75.0566477,9.21060562 74.4579039,9.97021472 L74.4579039,9.97021472 Z M82.731913,17.8705171 L79.8284021,17.8705171 L79.8284021,17.1476883 C78.8697925,17.8842613 77.8468174,18.245579 76.7886107,18.245579 C75.0306112,18.245579 73.5605624,17.5856637 72.3768188,16.264091 C71.3553924,15.1293233 70.8439532,13.7710671 70.8439532,12.2013245 C70.8439532,10.3821536 71.5047396,8.88597146 72.825538,7.70367978 C73.958757,6.69309382 75.2803298,6.18310652 76.7886107,6.18310652 C77.8468174,6.18310652 78.8697925,6.54452094 79.8284021,7.27954534 L79.8284021,6.5567165 L82.731913,6.5567165 L82.731913,17.8705171 Z M68.8378225,6.55670682 L68.8378225,18.5841412 C68.6044973,23.4724812 63.4904624,23.7387964 63.1119535,23.7518179 L63.0898427,23.7524449 L63.0898427,20.948531 C65.7299876,20.7801162 65.9236647,18.7755921 65.9328597,18.3360681 L65.9328597,18.3360681 L65.9328597,6.55670682 L68.8378225,6.55670682 Z M67.4182885,0.936606123 C67.9030136,0.936606123 68.327148,1.11121555 68.6877881,1.46033762 C69.0376845,1.82175204 69.2115196,2.23223907 69.2115196,2.71919032 C69.2115196,3.21688527 69.0376845,3.64111649 68.6877881,3.99023856 C68.327148,4.33781199 67.9030136,4.51232463 67.3922519,4.51232463 C66.8814903,4.51232463 66.4581302,4.33781199 66.1089113,3.99023856 C65.7475937,3.64111649 65.5730811,3.21688527 65.5730811,2.70534932 C65.5730811,2.21994672 65.7475937,1.79581228 66.1089113,1.44669021 C66.4703258,1.11121555 66.9068493,0.936606123 67.4182885,0.936606123 Z M84.9901724,7.08134815 L84.9901724,7.41111219 L85.1100954,7.41111219 C85.2426979,7.41111219 85.3084184,7.35574823 85.3084184,7.24618178 C85.3084184,7.13671212 85.2426979,7.08134815 85.1100954,7.08134815 L84.9901724,7.08134815 Z M85.5609439,7.98072223 L85.3637824,7.98072223 L85.1274208,7.57139668 C85.1054495,7.57255816 85.0593774,7.57255816 84.9901724,7.57255816 L84.9901724,7.98072223 L84.8148855,7.98072223 L84.8148855,6.9187407 L85.0962544,6.9187407 C85.1953675,6.9187407 85.2727029,6.93374317 85.3269053,6.9649096 C85.422534,7.02027357 85.4825439,7.12742026 85.4825439,7.24618178 C85.4825439,7.38110725 85.4179849,7.48602777 85.3015463,7.53790729 L85.5609439,7.98072223 Z M84.7526494,6.8057866 C84.6362108,6.87383007 84.5462928,6.9649096 84.4805723,7.07786371 C84.4136903,7.19207608 84.3802009,7.31654822 84.3802009,7.44915072 C84.3802009,7.58291471 84.4136903,7.70748363 84.4805723,7.82159922 C84.5462928,7.93687629 84.6373723,8.02795582 84.7526494,8.09367633 C84.8679265,8.16055832 84.9924954,8.19404772 85.1250979,8.19404772 C85.2577004,8.19404772 85.381011,8.16055832 85.4975464,8.09367633 C85.6139849,8.02679434 85.7050645,7.93571481 85.770785,7.82159922 C85.8365055,7.70632215 85.8698981,7.58059175 85.8698981,7.44450479 C85.8698981,7.22895313 85.7881104,7.04679407 85.62318,6.89686613 C85.4825439,6.76881276 85.3130644,6.70541521 85.1135799,6.70541521 C84.9855265,6.70541521 84.8656035,6.7389046 84.7526494,6.8057866 L84.7526494,6.8057866 Z M85.5713005,6.67666854 C85.7108719,6.75845621 85.8191801,6.86802266 85.8987416,7.00294813 C85.9783031,7.14009977 86.0186646,7.28886623 86.0186646,7.44915072 C86.0186646,7.60943521 85.9783031,7.75820167 85.8987416,7.8965148 C85.8191801,8.03492471 85.7108719,8.14332968 85.5713005,8.22289118 C85.4328906,8.30235589 85.2842209,8.34271739 85.1250979,8.34271739 C84.9648134,8.34271739 84.8160469,8.30235589 84.6787985,8.22289118 C84.5404854,8.14332968 84.4309189,8.03492471 84.3513574,7.8965148 C84.2717959,7.75936315 84.2314344,7.61059669 84.2314344,7.45263517 C84.2314344,7.29467364 84.2717959,7.1447457 84.3513574,7.00294813 C84.4517288,6.82417672 84.6038829,6.69505866 84.8056904,6.61665864 C84.9071265,6.57629715 85.0166929,6.55674554 85.1354544,6.55674554 C85.291093,6.55674554 85.436375,6.59710703 85.5713005,6.67666854 L85.5713005,6.67666854 Z" id="Fill-2"></path>
            </g>
        </g>
    </g>
</svg>